{
  "accessors": [
    {
      "bufferView": 2,
      "componentType": 5126,
      "count": 4481,
      "max": [
        0.2582208812236786,
        0.6862939596176147,
        0.7080308794975281
      ],
      "min": [
        -0.25822094082832336,
        -0.9628646969795227,
        0.0010512724984437227
      ],
      "type": "VEC3"
    },
    {
      "bufferView": 2,
      "byteOffset": 53772,
      "componentType": 5126,
      "count": 4481,
      "max": [
        1.0,
        1.0,
        1.0
      ],
      "min": [
        -1.0,
        -1.0,
        -1.0
      ],
      "type": "VEC3"
    },
    {
      "bufferView": 1,
      "componentType": 5126,
      "count": 4481,
      "max": [
        0.99853515625,
        0.995819091796875
      ],
      "min": [
        0.003597259521484375,
        0.00341796875
      ],
      "type": "VEC2"
    },
    {
      "bufferView": 0,
      "componentType": 5125,
      "count": 21738,
      "type": "SCALAR"
    },
    {
      "bufferView": 2,
      "byteOffset": 107544,
      "componentType": 5126,
      "count": 2175,
      "max": [
        0.08793744444847107,
        0.2489539384841919,
        0.24983377754688263
      ],
      "min": [
        -0.08793743699789047,
        -0.24795407056808472,
        -0.2502249479293823
      ],
      "type": "VEC3"
    },
    {
      "bufferView": 2,
      "byteOffset": 133644,
      "componentType": 5126,
      "count": 2175,
      "max": [
        1.0,
        0.9971343278884888,
        0.999944269657135
      ],
      "min": [
        -1.0,
        -0.9990699291229248,
        -0.9998931884765625
      ],
      "type": "VEC3"
    },
    {
      "bufferView": 1,
      "byteOffset": 35848,
      "componentType": 5126,
      "count": 2175,
      "max": [
        0.85693359375,
        0.3876953125
      ],
      "min": [
        0.53759765625,
        0.0048828125
      ],
      "type": "VEC2"
    },
    {
      "bufferView": 0,
      "byteOffset": 86952,
      "componentType": 5125,
      "count": 9744,
      "type": "SCALAR"
    }
  ],
  "asset": {
    "extras": {
      "author": "Shriker1 (https://sketchfab.com/Shriker1)",
      "license": "SKETCHFAB Standard (https://sketchfab.com/licenses)",
      "source": "https://sketchfab.com/3d-models/encom-786-flynns-lightcycle-tron-evolution-61ff800bc65e49f3ba3e1f4f7de92542",
      "title": "Encom 786 | Flynn's Lightcycle | Tron: Evolution"
    },
    "generator": "Sketchfab-16.59.0",
    "version": "2.0"
  },
  "bufferViews": [
    {
      "buffer": 0,
      "byteLength": 125928,
      "name": "floatBufferViews",
      "target": 34963
    },
    {
      "buffer": 0,
      "byteLength": 53248,
      "byteOffset": 125928,
      "byteStride": 8,
      "name": "floatBufferViews",
      "target": 34962
    },
    {
      "buffer": 0,
      "byteLength": 159744,
      "byteOffset": 179176,
      "byteStride": 12,
      "name": "floatBufferViews",
      "target": 34962
    }
  ],
  "buffers": [
    {
      "byteLength": 338920,
      "uri": "scene.bin"
    }
  ],
  "extensionsUsed": [
    "KHR_materials_emissive_strength",
    "KHR_materials_specular"
  ],
  "images": [
    {
      "uri": "textures/MG_FlynnCycle_Body_MI_baseColor.png"
    },
    {
      "uri": "textures/MG_FlynnCycle_Body_MI_metallicRoughness.png"
    },
    {
      "uri": "textures/MG_FlynnCycle_Body_MI_emissive.png"
    }
  ],
  "materials": [
    {
      "doubleSided": true,
      "emissiveFactor": [
        1.0,
        1.0,
        1.0
      ],
      "emissiveTexture": {
        "index": 2
      },
      "extensions": {
        "KHR_materials_emissive_strength": {
          "emissiveStrength": 10.0
        },
        "KHR_materials_specular": {
          "specularColorFactor": [
            1.0,
            1.0,
            1.0
          ],
          "specularFactor": 0.6140971096292864
        }
      },
      "name": "MG_FlynnCycle_Body_MI",
      "pbrMetallicRoughness": {
        "baseColorTexture": {
          "index": 0
        },
        "metallicFactor": 0.0,
        "metallicRoughnessTexture": {
          "index": 1
        },
        "roughnessFactor": 0.30933427606636515
      }
    }
  ],
  "meshes": [
    {
      "name": "FlynnLightcycle_MG_FlynnCycle_Body_MI_0",
      "primitives": [
        {
          "attributes": {
            "NORMAL": 1,
            "POSITION": 0,
            "TEXCOORD_0": 2
          },
          "indices": 3,
          "material": 0,
          "mode": 4
        }
      ]
    },
    {
      "name": "RearWheel_MG_FlynnCycle_Body_MI_0",
      "primitives": [
        {
          "attributes": {
            "NORMAL": 5,
            "POSITION": 4,
            "TEXCOORD_0": 6
          },
          "indices": 7,
          "material": 0,
          "mode": 4
        }
      ]
    }
  ],
  "nodes": [
    {
      "children": [
        1
      ],
      "matrix": [
        1.0,
        0.0,
        0.0,
        0.0,
        0.0,
        2.220446049250313e-16,
        -1.0,
        0.0,
        0.0,
        1.0,
        2.220446049250313e-16,
        0.0,
        0.0,
        0.0,
        0.0,
        1.0
      ],
      "name": "Sketchfab_model"
    },
    {
      "children": [
        2
      ],
      "matrix": [
        0.009999999776482582,
        0.0,
        0.0,
        0.0,
        0.0,
        0.0,
        0.009999999776482582,
        0.0,
        0.0,
        -0.009999999776482582,
        0.0,
        0.0,
        0.0,
        0.0,
        0.0,
        1.0
      ],
      "name": "af5b9fbb2c5a4cfcbce982995f770385.fbx"
    },
    {
      "children": [
        3
      ],
      "name": "RootNode"
    },
    {
      "children": [
        4,
        5
      ],
      "matrix": [
        100.0,
        0.0,
        0.0,
        0.0,
        0.0,
        -1.629206793918314e-05,
        -99.99999999999868,
        0.0,
        0.0,
        99.99999999999868,
        -1.629206793918314e-05,
        0.0,
        0.0,
        0.0,
        0.0,
        1.0
      ],
      "name": "FlynnLightcycle"
    },
    {
      "mesh": 0,
      "name": "FlynnLightcycle_MG_FlynnCycle_Body_MI_0"
    },
    {
      "children": [
        6
      ],
      "matrix": [
        1.0,
        0.0,
        0.0,
        0.0,
        0.0,
        1.0,
        -2.646977960169688e-23,
        0.0,
        0.0,
        2.646977960169688e-23,
        1.0,
        0.0,
        -1.2003713578678799e-08,
        0.6137783527374268,
        0.24951685965061188,
        1.0
      ],
      "name": "RearWheel"
    },
    {
      "mesh": 1,
      "name": "RearWheel_MG_FlynnCycle_Body_MI_0"
    }
  ],
  "samplers": [
    {
      "magFilter": 9729,
      "minFilter": 9987,
      "wrapS": 10497,
      "wrapT": 10497
    }
  ],
  "scene": 0,
  "scenes": [
    {
      "name": "Sketchfab_Scene",
      "nodes": [
        0
      ]
    }
  ],
  "textures": [
    {
      "sampler": 0,
      "source": 0
    },
    {
      "sampler": 0,
      "source": 1
    },
    {
      "sampler": 0,
      "source": 2
    }
  ]
}
